# Blender v2.90.0 OBJ File: 'table.blend'
# www.blender.org
v 1.581819 0.077005 -1.000000
v 1.581819 0.232300 -1.000000
v 1.581819 0.077005 1.000000
v 1.581819 0.232300 1.000000
v -1.581819 0.077005 -1.000000
v -1.581819 0.232300 -1.000000
v -1.581819 0.077005 1.000000
v -1.581819 0.232300 1.000000
v 1.423637 0.077005 1.000000
v 1.423637 0.077005 -1.000000
v -1.431546 0.077005 1.000000
v -1.431546 0.077005 -1.000000
v 1.423637 0.077005 -0.900000
v -1.431546 0.077005 -0.900000
v 1.423637 0.077005 0.905000
v -1.431546 0.077005 0.905000
v 1.423637 0.077005 -0.730827
v -1.431546 0.077005 -0.730827
v 1.423637 0.077005 0.741417
v -1.431546 0.077005 0.741417
v 1.280878 0.077005 -1.000000
v 1.280878 0.077005 1.000000
v 1.280878 0.077005 -0.900000
v 1.280878 0.077005 0.905000
v 1.280878 0.077005 -0.730827
v 1.280878 0.077005 0.741417
v -1.295925 0.077005 1.000000
v -1.295925 0.077005 -1.000000
v -1.295925 0.077005 -0.900000
v -1.295925 0.077005 0.905000
v -1.295925 0.077005 -0.730827
v -1.295925 0.077005 0.741417
v 1.280878 -0.814523 -0.900000
v 1.423637 -0.814523 -0.900000
v 1.423637 -0.814523 0.741417
v 1.423637 -0.814523 0.905000
v -1.431546 -0.814523 0.741417
v -1.431546 -0.814523 0.905000
v 1.280878 -0.814523 0.905000
v 1.423637 -0.814523 -0.730827
v -1.431546 -0.814523 -0.900000
v -1.431546 -0.814523 -0.730827
v 1.280878 -0.814523 -0.730827
v 1.280878 -0.814523 0.741417
v -1.295925 -0.814523 -0.900000
v -1.295925 -0.814523 0.905000
v -1.295925 -0.814523 -0.730827
v -1.295925 -0.814523 0.741417
vt 0.375000 0.750000
vt 0.625000 0.500000
vt 0.375000 0.500000
vt 0.375000 1.000000
vt 0.625000 0.988125
vt 0.625000 0.977408
vt 0.852408 0.750000
vt 0.863125 0.738125
vt 0.852408 0.738125
vt 0.852408 0.512500
vt 0.863125 0.500000
vt 0.852408 0.500000
vt 0.648781 0.738125
vt 0.637500 0.738125
vt 0.648781 0.738125
vt 0.852408 0.717677
vt 0.863125 0.717677
vt 0.852408 0.717677
vt 0.625000 0.000000
vt 0.375000 0.250000
vt 0.625000 0.250000
vt 0.625000 0.750000
vt 0.637500 0.717677
vt 0.863125 0.533647
vt 0.852408 0.533647
vt 0.648781 0.533647
vt 0.637500 0.533647
vt 0.863125 0.512500
vt 0.863125 0.512500
vt 0.863125 0.533647
vt 0.637500 0.512500
vt 0.648781 0.500000
vt 0.637500 0.500000
vt 0.637500 0.750000
vt 0.125000 0.500000
vt 0.625000 0.487500
vt 0.625000 0.476219
vt 0.852408 0.738125
vt 0.863125 0.717677
vt 0.852408 0.533647
vt 0.852408 0.512500
vt 0.637500 0.533647
vt 0.648781 0.512500
vt 0.637500 0.512500
vt 0.637500 0.738125
vt 0.648781 0.717677
vt 0.637500 0.717677
vt 0.648781 0.717677
vt 0.648781 0.512500
vt 0.863125 0.738125
vt 0.648781 0.533647
vt 0.875000 0.750000
vt 0.625000 0.762500
vt 0.625000 0.773781
vt 0.625000 1.000000
vt 0.863125 0.750000
vt 0.375000 0.000000
vt 0.648781 0.750000
vt 0.125000 0.750000
vt 0.625000 0.272592
vt 0.625000 0.261875
vt 0.875000 0.500000
vn 1.0000 0.0000 0.0000
vn 0.0000 0.0000 1.0000
vn 0.0000 -1.0000 0.0000
vn 0.0000 0.0000 -1.0000
vn -1.0000 0.0000 0.0000
vn 0.0000 1.0000 0.0000
s off
f 4/1/1 1/2/1 2/3/1
f 8/4/2 11/5/2 27/6/2
f 27/7/3 16/8/3 30/9/3
f 29/10/3 12/11/3 28/12/3
f 39/13/2 15/14/2 24/15/2
f 48/16/4 20/17/4 32/18/4
f 7/19/5 6/20/5 5/21/5
f 3/22/3 15/14/3 19/23/3
f 32/18/3 18/24/3 31/25/3
f 19/23/3 25/26/3 17/27/3
f 41/28/5 18/24/5 14/29/5
f 42/30/2 31/25/2 18/24/2
f 13/31/3 21/32/3 10/33/3
f 9/34/3 24/15/3 15/14/3
f 6/35/6 4/1/6 2/3/6
f 30/9/3 32/18/3 24/15/3
f 2/3/4 10/36/4 21/37/4
f 46/38/3 37/39/3 48/16/3
f 47/40/3 41/28/3 45/41/3
f 40/42/3 33/43/3 34/44/3
f 36/45/3 44/46/3 35/47/3
f 47/40/1 29/10/1 31/25/1
f 35/47/4 26/48/4 19/23/4
f 33/43/5 25/26/5 23/49/5
f 36/45/1 19/23/1 15/14/1
f 46/38/1 32/18/1 30/9/1
f 37/39/5 16/8/5 20/17/5
f 44/46/5 24/15/5 26/48/5
f 45/41/4 14/29/4 29/10/4
f 40/42/1 13/31/1 17/27/1
f 34/44/4 23/49/4 13/31/4
f 38/50/2 30/9/2 16/8/2
f 43/51/2 17/27/2 25/26/2
f 20/17/3 16/8/3 7/52/3
f 4/1/1 3/22/1 1/2/1
f 3/22/2 4/1/2 9/53/2
f 4/1/2 8/4/2 22/54/2
f 9/53/2 4/1/2 22/54/2
f 8/4/2 7/55/2 11/5/2
f 27/6/2 22/54/2 8/4/2
f 27/7/3 11/56/3 16/8/3
f 29/10/3 14/29/3 12/11/3
f 39/13/2 36/45/2 15/14/2
f 48/16/4 37/39/4 20/17/4
f 7/19/5 8/57/5 6/20/5
f 10/33/3 1/2/3 13/31/3
f 1/2/3 3/22/3 17/27/3
f 13/31/3 1/2/3 17/27/3
f 3/22/3 9/34/3 15/14/3
f 19/23/3 17/27/3 3/22/3
f 32/18/3 20/17/3 18/24/3
f 19/23/3 26/48/3 25/26/3
f 41/28/5 42/30/5 18/24/5
f 42/30/2 47/40/2 31/25/2
f 13/31/3 23/49/3 21/32/3
f 9/34/3 22/58/3 24/15/3
f 6/35/6 8/59/6 4/1/6
f 28/12/3 21/32/3 23/49/3
f 25/26/3 26/48/3 31/25/3
f 26/48/3 24/15/3 32/18/3
f 25/26/3 31/25/3 29/10/3
f 28/12/3 23/49/3 29/10/3
f 23/49/3 25/26/3 29/10/3
f 32/18/3 31/25/3 26/48/3
f 24/15/3 22/58/3 27/7/3
f 27/7/3 30/9/3 24/15/3
f 28/60/4 12/61/4 6/20/4
f 12/61/4 5/21/4 6/20/4
f 28/60/4 6/20/4 21/37/4
f 6/20/4 2/3/4 21/37/4
f 2/3/4 1/2/4 10/36/4
f 46/38/3 38/50/3 37/39/3
f 47/40/3 42/30/3 41/28/3
f 40/42/3 43/51/3 33/43/3
f 36/45/3 39/13/3 44/46/3
f 47/40/1 45/41/1 29/10/1
f 35/47/4 44/46/4 26/48/4
f 33/43/5 43/51/5 25/26/5
f 36/45/1 35/47/1 19/23/1
f 46/38/1 48/16/1 32/18/1
f 37/39/5 38/50/5 16/8/5
f 44/46/5 39/13/5 24/15/5
f 45/41/4 41/28/4 14/29/4
f 40/42/1 34/44/1 13/31/1
f 34/44/4 33/43/4 23/49/4
f 38/50/2 46/38/2 30/9/2
f 43/51/2 40/42/2 17/27/2
f 7/52/3 5/62/3 18/24/3
f 5/62/3 12/11/3 14/29/3
f 14/29/3 18/24/3 5/62/3
f 18/24/3 20/17/3 7/52/3
f 16/8/3 11/56/3 7/52/3
